<svg width="600" height="220" viewBox="0 0 600 220" fill="none" xmlns="http://www.w3.org/2000/svg">
<path d="M79.2562 0C90.4577 0 101.026 1.47578 110.959 4.42597C121.104 7.3761 129.875 11.379 137.272 16.4363L135.369 54.3678H132.2L119.201 30.6612C115.608 23.2858 112.016 18.1222 108.423 15.172C104.83 12.0112 100.709 9.79902 96.0592 8.53464C93.3119 7.69182 90.7754 7.1654 88.4508 6.95463C86.126 6.53317 83.1657 6.32165 79.5728 6.32165C68.7942 6.32177 59.7058 9.48322 52.3087 15.8049C44.9117 21.916 41.2127 30.2397 41.2127 40.7759C41.2128 51.5229 44.0662 60.1629 49.7726 66.6955C55.479 73.0173 63.8285 78.7073 74.8188 83.7647L89.4006 90.0864C109.69 98.9369 124.274 108.42 133.151 118.535C142.028 128.439 146.465 141.293 146.465 157.098C146.465 175.642 139.385 190.814 125.225 202.615C111.275 214.205 91.4085 220 65.6241 220C53.9999 220 42.1637 218.524 30.1168 215.574C18.0701 212.835 8.03117 209.147 0 204.511L1.58467 161.523H4.75563L14.5835 182.068C17.5423 187.969 20.7116 193.237 24.0931 197.873C27.4747 202.299 32.1256 205.775 38.0434 208.304C42.2704 210.411 46.2865 211.887 50.0908 212.73C54.1061 213.362 58.5441 213.678 63.4046 213.678C76.297 213.678 86.4424 210.2 93.8397 203.246C101.448 196.293 105.252 187.337 105.252 176.38C105.252 166.054 102.716 158.046 97.6438 152.356C92.5714 146.456 84.434 140.765 73.2325 135.287L60.2353 129.598C42.0591 121.59 27.7924 112.422 17.4362 102.097C7.2918 91.5605 2.21958 77.653 2.21951 60.3738C2.21951 47.9412 5.38895 37.1937 11.7291 28.1326C18.2809 19.0714 27.2639 12.117 38.6766 7.27031C50.3008 2.42359 63.8277 1.72676e-05 79.2562 0Z" fill="#121211"/>
<path fill-rule="evenodd" clip-rule="evenodd" d="M237.744 57.5295C251.482 57.5295 263.213 60.3728 272.935 66.0625C282.657 71.5414 290.054 79.1286 295.127 88.8221C300.41 98.3046 303.052 109.157 303.052 121.379C303.052 123.697 302.946 126.121 302.735 128.649C302.524 130.967 302.101 133.074 301.467 134.971H206.992C207.204 157.73 211.22 174.167 219.04 184.281C227.071 194.186 238.907 199.138 254.547 199.138C265.114 199.138 273.673 197.452 280.225 194.08C286.777 190.709 292.906 185.756 298.613 179.224L301.784 182.068C295.232 193.658 286.461 202.72 275.471 209.252C264.692 215.785 251.693 219.051 236.476 219.051C221.47 219.051 208.156 215.89 196.531 209.568C184.907 203.036 175.819 193.764 169.267 181.753C162.715 169.741 159.439 155.411 159.439 138.764C159.439 121.485 163.244 106.839 170.852 94.828C178.461 82.6058 188.183 73.333 200.019 67.0111C212.066 60.6896 224.641 57.5295 237.744 57.5295ZM236.793 63.8511C230.664 63.8512 225.381 65.7472 220.943 69.5398C216.716 73.1222 213.333 79.655 210.797 89.1377C208.472 98.4097 207.204 111.58 206.992 128.649H261.204C263.318 105.68 262.472 89.138 258.668 79.0231C254.864 68.9082 247.572 63.8511 236.793 63.8511Z" fill="#121211"/>
<path fill-rule="evenodd" clip-rule="evenodd" d="M394.441 57.5295C408.179 57.5295 419.91 60.3729 429.632 66.0625C439.354 71.5414 446.751 79.1286 451.824 88.8221C457.107 98.3046 459.749 109.157 459.749 121.379C459.749 123.697 459.643 126.121 459.432 128.649C459.221 130.967 458.798 133.074 458.164 134.971H363.69C363.901 157.729 367.917 174.167 375.737 184.281C383.768 194.186 395.604 199.138 411.244 199.138C421.812 199.138 430.372 197.452 436.924 194.08C443.475 190.709 449.605 185.757 455.311 179.224L458.481 182.068C451.929 193.658 443.158 202.72 432.168 209.252C421.389 215.785 408.39 219.051 393.173 219.051C378.167 219.051 364.853 215.89 353.228 209.568C341.604 203.036 332.516 193.764 325.964 181.753C319.413 169.741 316.137 155.411 316.137 138.764C316.137 121.485 319.941 106.839 327.549 94.828C335.158 82.6058 344.88 73.333 356.716 67.0111C368.763 60.6895 381.338 57.5296 394.441 57.5295ZM393.491 63.8511C387.362 63.8511 382.078 65.747 377.64 69.5398C373.413 73.1221 370.032 79.6552 367.495 89.1377C365.17 98.4097 363.901 111.58 363.69 128.649H417.901C420.015 105.68 419.169 89.138 415.365 79.0231C411.561 68.9084 404.27 63.8514 393.491 63.8511Z" fill="#121211"/>
<path d="M575.272 57.5295C583.303 57.5295 589.433 59.7415 593.66 64.1668C597.886 68.5919 600 74.1758 600 80.9188C600 88.0835 597.887 93.6685 593.66 97.6724C589.644 101.465 584.783 103.363 579.076 103.363C570.2 103.363 562.379 98.9368 555.616 90.0864L554.983 89.4534C552.87 86.5035 550.439 84.9242 547.691 84.7134C544.944 84.2919 542.408 85.5562 540.083 88.5064C537.969 90.4029 536.172 92.72 534.693 95.4594C533.424 97.988 532.156 100.938 530.888 104.31V192.5C530.888 200.929 534.588 206.196 541.984 208.304L552.129 211.15V214.31H470.02V211.15L474.775 209.885C479.002 208.621 481.856 206.724 483.335 204.195C485.026 201.666 485.871 198.4 485.871 194.396V95.4594C485.871 90.8237 485.026 87.452 483.335 85.3447C481.856 83.0268 479.002 81.446 474.775 80.6031L470.02 79.3388V76.1787L524.548 57.8451L527.719 61.0052L530.572 88.1891V90.7177C533.531 84.8176 537.335 79.4437 541.984 74.5971C546.845 69.5397 552.129 65.4304 557.836 62.2695C563.753 59.1087 569.566 57.5295 575.272 57.5295Z" fill="#121211"/>
</svg>
